<svg width="1920" height="1080" viewBox="0 0 1920 1080" fill="none" xmlns="http://www.w3.org/2000/svg">
<path d="M-885.335 1103.86C-885.335 1103.86 -638.772 670.296 -366.1 618.75C-167.91 581.285 -61.9601 747.652 138.754 727.741C562.677 685.686 896.444 -57.0284 896.444 -57.0284" stroke="url(#paint0_linear_2_3)" stroke-width="2"/>
<path d="M-163.179 928.644C-163.179 928.644 210.729 598.547 485.373 638.27C684.996 667.142 731.228 858.887 927.543 905.182C1342.17 1002.96 1898.88 408.738 1898.88 408.738" stroke="url(#paint1_linear_2_3)" stroke-width="2"/>
<path d="M-236.621 995.55C-236.621 995.55 137.286 665.453 411.931 705.176C611.553 734.049 657.786 925.793 854.101 972.089C1268.73 1069.87 1825.44 475.645 1825.44 475.645" stroke="url(#paint2_linear_2_3)" stroke-width="2"/>
<path d="M-312.56 1059.62C-312.56 1059.62 61.3472 729.521 335.992 769.244C535.614 798.116 581.847 989.861 778.162 1036.16C1192.79 1133.93 1749.5 539.713 1749.5 539.713" stroke="url(#paint3_linear_2_3)" stroke-width="2"/>
<path d="M-391.026 1120.56C-391.026 1120.56 -17.119 790.46 257.525 830.183C457.148 859.055 503.38 1050.8 699.695 1097.1C1114.33 1194.87 1671.03 600.652 1671.03 600.652" stroke="url(#paint4_linear_2_3)" stroke-width="2"/>
<path d="M-472.193 1177.86C-472.193 1177.86 -98.2857 847.763 176.359 887.485C375.981 916.358 422.214 1108.1 618.529 1154.4C1033.16 1252.18 1589.87 657.954 1589.87 657.954" stroke="url(#paint5_linear_2_3)" stroke-width="2"/>
<path d="M-556.309 1230.74C-556.309 1230.74 -182.402 900.641 92.2424 940.364C291.865 969.237 338.097 1160.98 534.412 1207.28C949.043 1305.06 1505.75 710.833 1505.75 710.833" stroke="url(#paint6_linear_2_3)" stroke-width="2"/>
<path d="M-643.684 1278.04C-643.684 1278.04 -269.776 947.939 4.86805 987.662C204.491 1016.53 250.723 1208.28 447.038 1254.57C861.669 1352.35 1418.38 758.131 1418.38 758.131" stroke="url(#paint7_linear_2_3)" stroke-width="2"/>
<path d="M-734.625 1318.04C-734.625 1318.04 -360.718 987.948 -86.0737 1027.67C113.549 1056.54 159.781 1248.29 356.096 1294.58C770.727 1392.36 1327.44 798.139 1327.44 798.139" stroke="url(#paint8_linear_2_3)" stroke-width="2"/>
<path d="M-829.294 1348.2C-829.294 1348.2 -455.386 1018.1 -180.742 1057.82C18.8807 1086.69 65.1131 1278.44 261.428 1324.73C676.059 1422.51 1232.77 828.291 1232.77 828.291" stroke="url(#paint9_linear_2_3)" stroke-width="2"/>
<path d="M-927.266 1364.7C-927.266 1364.7 -553.359 1034.6 -278.714 1074.32C-79.0918 1103.19 -32.8594 1294.94 163.456 1341.23C578.086 1439.01 1134.79 844.791 1134.79 844.791" stroke="url(#paint10_linear_2_3)" stroke-width="2"/>
<path d="M-1026.6 1362.47C-1026.6 1362.47 -652.689 1032.37 -378.044 1072.1C-178.422 1100.97 -132.189 1292.71 64.1256 1339.01C478.756 1436.79 1035.46 842.564 1035.46 842.564" stroke="url(#paint11_linear_2_3)" stroke-width="2"/>
<path d="M-1121.32 1336.55C-1121.32 1336.55 -747.418 1006.45 -472.773 1046.18C-273.151 1075.05 -226.918 1266.79 -30.6033 1313.09C384.027 1410.87 940.736 816.645 940.736 816.645" stroke="url(#paint12_linear_2_3)" stroke-width="2"/>
<path d="M-1206.16 1284.83C-1206.16 1284.83 -832.257 954.738 -557.613 994.461C-357.99 1023.33 -311.758 1215.08 -115.443 1261.37C299.188 1359.15 855.896 764.93 855.896 764.93" stroke="url(#paint13_linear_2_3)" stroke-width="2"/>
<path d="M-1280.5 1218.92C-1280.5 1218.92 -906.596 888.827 -631.952 928.55C-432.329 957.422 -386.097 1149.17 -189.782 1195.46C224.849 1293.24 781.557 699.019 781.557 699.019" stroke="url(#paint14_linear_2_3)" stroke-width="2"/>
<path d="M-1355.41 1153.65C-1355.41 1153.65 -981.499 823.548 -706.854 863.271C-507.232 892.144 -460.999 1083.89 -264.684 1130.18C149.946 1227.96 706.655 633.74 706.655 633.74" stroke="url(#paint15_linear_2_3)" stroke-width="2"/>
<path d="M-1442.03 1104.98C-1442.03 1104.98 -1068.12 774.888 -793.474 814.611C-593.852 843.483 -547.619 1035.23 -351.304 1081.52C63.3263 1179.3 620.035 585.08 620.035 585.08" stroke="url(#paint16_linear_2_3)" stroke-width="2"/>
<path d="M-1560.67 1085.33C-1560.67 1085.33 -1186.76 755.229 -912.116 794.952C-712.493 823.824 -666.261 1015.57 -469.946 1061.86C-55.3155 1159.64 501.393 565.421 501.393 565.421" stroke="url(#paint17_linear_2_3)" stroke-width="2"/>
<path d="M-1659.16 1098.41C-1659.16 1098.41 -1285.25 768.311 -1010.61 808.034C-810.982 836.907 -764.75 1028.65 -568.435 1074.95C-153.805 1172.73 402.904 578.503 402.904 578.503" stroke="url(#paint18_linear_2_3)" stroke-width="2"/>
<path d="M-1753.91 1128.3C-1753.91 1128.3 -1380 798.201 -1105.36 837.924C-905.733 866.796 -859.501 1058.54 -663.186 1104.84C-248.555 1202.61 308.153 608.392 308.153 608.392" stroke="url(#paint19_linear_2_3)" stroke-width="2"/>
<path d="M-1844.5 1169.08C-1844.5 1169.08 -1470.6 838.983 -1195.95 878.705C-996.329 907.578 -950.097 1099.32 -753.782 1145.62C-339.151 1243.4 217.557 649.174 217.557 649.174" stroke="url(#paint20_linear_2_3)" stroke-width="2"/>
<path d="M-1931.31 1217.41C-1931.31 1217.41 -1557.4 887.313 -1282.76 927.036C-1083.13 955.908 -1036.9 1147.65 -840.587 1193.95C-425.956 1291.73 130.752 697.505 130.752 697.505" stroke="url(#paint21_linear_2_3)" stroke-width="2"/>
<path d="M-2014.7 1271.39C-2014.7 1271.39 -1640.79 941.289 -1366.14 981.012C-1166.52 1009.88 -1120.29 1201.63 -923.975 1247.92C-509.344 1345.7 47.3644 751.481 47.3644 751.481" stroke="url(#paint22_linear_2_3)" stroke-width="2"/>
<path d="M-52.2469 761.184C-52.2469 761.184 286.154 394.775 563.414 406.363C764.938 414.786 830.43 600.835 1030.43 626.927C1452.86 682.035 1946.25 34.2811 1946.25 34.2811" stroke="url(#paint23_linear_2_3)" stroke-width="2"/>
<path d="M-113.599 835.693C-113.599 835.693 224.802 469.284 502.062 480.872C703.586 489.295 769.078 675.344 969.083 701.436C1391.51 756.544 1884.9 108.79 1884.9 108.79" stroke="url(#paint24_linear_2_3)" stroke-width="2"/>
<path d="M-179.855 909.721C-179.855 909.721 158.546 543.313 435.806 554.901C637.33 563.324 702.821 749.373 902.826 775.465C1325.25 830.573 1818.65 182.819 1818.65 182.819" stroke="url(#paint25_linear_2_3)" stroke-width="2"/>
<path d="M-248.884 981.179C-248.884 981.179 89.517 614.77 366.777 626.359C568.301 634.781 633.792 820.831 833.797 846.923C1256.22 902.03 1749.62 254.277 1749.62 254.277" stroke="url(#paint26_linear_2_3)" stroke-width="2"/>
<path d="M-320.748 1049.78C-320.748 1049.78 17.6528 683.376 294.913 694.965C496.437 703.387 561.928 889.437 761.933 915.529C1184.36 970.636 1677.75 322.883 1677.75 322.883" stroke="url(#paint27_linear_2_3)" stroke-width="2"/>
<path d="M-395.667 1115.04C-395.667 1115.04 -57.2662 748.633 219.994 760.221C421.518 768.644 487.009 954.693 687.014 980.785C1109.44 1035.89 1602.83 388.139 1602.83 388.139" stroke="url(#paint28_linear_2_3)" stroke-width="2"/>
<path d="M-473.971 1176.2C-473.971 1176.2 -135.569 809.787 141.691 821.375C343.215 829.798 408.706 1015.85 608.711 1041.94C1031.14 1097.05 1524.53 449.293 1524.53 449.293" stroke="url(#paint29_linear_2_3)" stroke-width="2"/>
<path d="M-556.082 1232.13C-556.082 1232.13 -217.681 865.724 59.5793 877.313C261.103 885.735 326.595 1071.78 526.6 1097.88C949.024 1152.98 1442.42 505.231 1442.42 505.231" stroke="url(#paint30_linear_2_3)" stroke-width="2"/>
<path d="M-642.484 1281.18C-642.484 1281.18 -304.083 914.774 -26.8231 926.362C174.701 934.785 240.192 1120.83 440.197 1146.93C862.622 1202.03 1356.02 554.28 1356.02 554.28" stroke="url(#paint31_linear_2_3)" stroke-width="2"/>
<path d="M-733.595 1320.81C-733.595 1320.81 -395.194 954.398 -117.934 965.986C83.59 974.409 149.081 1160.46 349.086 1186.55C771.511 1241.66 1264.91 593.904 1264.91 593.904" stroke="url(#paint32_linear_2_3)" stroke-width="2"/>
<path d="M-829.383 1347.19C-829.383 1347.19 -490.982 980.778 -213.722 992.366C-12.1982 1000.79 53.2932 1186.84 253.298 1212.93C675.723 1268.04 1169.12 620.284 1169.12 620.284" stroke="url(#paint33_linear_2_3)" stroke-width="2"/>
<path d="M-928.424 1355.06C-928.424 1355.06 -590.023 988.656 -312.763 1000.24C-111.239 1008.67 -45.748 1194.72 154.257 1220.81C576.681 1275.92 1070.08 628.162 1070.08 628.162" stroke="url(#paint34_linear_2_3)" stroke-width="2"/>
<path d="M-1025.3 1338.91C-1025.3 1338.91 -686.897 972.503 -409.636 984.091C-208.113 992.514 -142.621 1178.56 57.3838 1204.66C479.808 1259.76 973.204 612.009 973.204 612.009" stroke="url(#paint35_linear_2_3)" stroke-width="2"/>
<path d="M-1114.96 1296.1C-1114.96 1296.1 -776.555 929.693 -499.295 941.281C-297.771 949.704 -232.279 1135.75 -32.2743 1161.85C390.15 1216.95 883.546 569.199 883.546 569.199" stroke="url(#paint36_linear_2_3)" stroke-width="2"/>
<path d="M-1195.61 1238.09C-1195.61 1238.09 -857.211 871.677 -579.951 883.265C-378.427 891.688 -312.935 1077.74 -112.93 1103.83C309.494 1158.94 802.89 511.183 802.89 511.183" stroke="url(#paint37_linear_2_3)" stroke-width="2"/>
<path d="M-1276.77 1180.77C-1276.77 1180.77 -938.364 814.359 -661.104 825.947C-459.58 834.37 -394.089 1020.42 -194.084 1046.51C228.341 1101.62 721.736 453.865 721.736 453.865" stroke="url(#paint38_linear_2_3)" stroke-width="2"/>
<path d="M-1367.88 1141.16C-1367.88 1141.16 -1029.48 774.753 -752.222 786.341C-550.698 794.764 -485.207 980.813 -285.202 1006.91C137.222 1062.01 630.618 414.259 630.618 414.259" stroke="url(#paint39_linear_2_3)" stroke-width="2"/>
<path d="M-1487.91 1133.67C-1487.91 1133.67 -1149.51 767.263 -872.248 778.851C-670.724 787.274 -605.233 973.323 -405.228 999.415C17.1967 1054.52 510.592 406.769 510.592 406.769" stroke="url(#paint40_linear_2_3)" stroke-width="2"/>
<path d="M-1584.56 1156.7C-1584.56 1156.7 -1246.16 790.29 -968.897 801.878C-767.373 810.301 -701.882 996.35 -501.877 1022.44C-79.4522 1077.55 413.943 429.796 413.943 429.796" stroke="url(#paint41_linear_2_3)" stroke-width="2"/>
<path d="M-1675.78 1196.07C-1675.78 1196.07 -1337.38 829.663 -1060.12 841.251C-858.593 849.674 -793.101 1035.72 -593.096 1061.82C-170.672 1116.92 322.724 469.169 322.724 469.169" stroke="url(#paint42_linear_2_3)" stroke-width="2"/>
<path d="M-1761.76 1245.85C-1761.76 1245.85 -1423.36 879.445 -1146.1 891.033C-944.575 899.456 -879.084 1085.51 -679.079 1111.6C-256.654 1166.7 236.741 518.951 236.741 518.951" stroke="url(#paint43_linear_2_3)" stroke-width="2"/>
<path d="M-1843.2 1302.76C-1843.2 1302.76 -1504.8 936.355 -1227.54 947.943C-1026.02 956.366 -960.524 1142.42 -760.519 1168.51C-338.094 1223.62 155.301 575.861 155.301 575.861" stroke="url(#paint44_linear_2_3)" stroke-width="2"/>
<path d="M-1920.67 1364.94C-1920.67 1364.94 -1582.26 998.533 -1305 1010.12C-1103.48 1018.54 -1037.99 1204.59 -837.984 1230.69C-415.559 1285.79 77.8363 638.039 77.8363 638.039" stroke="url(#paint45_linear_2_3)" stroke-width="2"/>
<path d="M-1884.59 1467.31C-1884.59 1467.31 -1638.02 1033.75 -1365.35 982.201C-1167.16 944.736 -1061.21 1111.1 -860.496 1091.19C-436.574 1049.14 -102.807 306.423 -102.807 306.423" stroke="url(#paint46_linear_2_3)" stroke-width="2"/>
<defs>
<linearGradient id="paint0_linear_2_3" x1="-76.8102" y1="169.42" x2="87.9193" y2="877.411" gradientUnits="userSpaceOnUse">
<stop stop-color="#2E2E2E"/>
<stop offset="0.5625" stop-color="#4D4D4D"/>
<stop offset="1" stop-color="white"/>
</linearGradient>
<linearGradient id="paint1_linear_2_3" x1="904.811" y1="307.124" x2="830.892" y2="1030.26" gradientUnits="userSpaceOnUse">
<stop stop-color="#2E2E2E"/>
<stop offset="0.5625" stop-color="#4D4D4D"/>
<stop offset="1" stop-color="white"/>
</linearGradient>
<linearGradient id="paint2_linear_2_3" x1="831.369" y1="374.031" x2="757.45" y2="1097.16" gradientUnits="userSpaceOnUse">
<stop stop-color="#2E2E2E"/>
<stop offset="0.5625" stop-color="#4D4D4D"/>
<stop offset="1" stop-color="white"/>
</linearGradient>
<linearGradient id="paint3_linear_2_3" x1="755.43" y1="438.098" x2="681.511" y2="1161.23" gradientUnits="userSpaceOnUse">
<stop stop-color="#2E2E2E"/>
<stop offset="0.5625" stop-color="#4D4D4D"/>
<stop offset="1" stop-color="white"/>
</linearGradient>
<linearGradient id="paint4_linear_2_3" x1="676.964" y1="499.037" x2="603.045" y2="1222.17" gradientUnits="userSpaceOnUse">
<stop stop-color="#2E2E2E"/>
<stop offset="0.5625" stop-color="#4D4D4D"/>
<stop offset="1" stop-color="white"/>
</linearGradient>
<linearGradient id="paint5_linear_2_3" x1="595.797" y1="556.34" x2="521.878" y2="1279.47" gradientUnits="userSpaceOnUse">
<stop stop-color="#2E2E2E"/>
<stop offset="0.5625" stop-color="#4D4D4D"/>
<stop offset="1" stop-color="white"/>
</linearGradient>
<linearGradient id="paint6_linear_2_3" x1="511.681" y1="609.219" x2="437.762" y2="1332.35" gradientUnits="userSpaceOnUse">
<stop stop-color="#2E2E2E"/>
<stop offset="0.5625" stop-color="#4D4D4D"/>
<stop offset="1" stop-color="white"/>
</linearGradient>
<linearGradient id="paint7_linear_2_3" x1="424.306" y1="656.517" x2="350.387" y2="1379.65" gradientUnits="userSpaceOnUse">
<stop stop-color="#2E2E2E"/>
<stop offset="0.5625" stop-color="#4D4D4D"/>
<stop offset="1" stop-color="white"/>
</linearGradient>
<linearGradient id="paint8_linear_2_3" x1="333.365" y1="696.525" x2="259.445" y2="1419.66" gradientUnits="userSpaceOnUse">
<stop stop-color="#2E2E2E"/>
<stop offset="0.5625" stop-color="#4D4D4D"/>
<stop offset="1" stop-color="white"/>
</linearGradient>
<linearGradient id="paint9_linear_2_3" x1="238.696" y1="726.677" x2="164.777" y2="1449.81" gradientUnits="userSpaceOnUse">
<stop stop-color="#2E2E2E"/>
<stop offset="0.5625" stop-color="#4D4D4D"/>
<stop offset="1" stop-color="white"/>
</linearGradient>
<linearGradient id="paint10_linear_2_3" x1="140.724" y1="743.177" x2="66.8047" y2="1466.31" gradientUnits="userSpaceOnUse">
<stop stop-color="#2E2E2E"/>
<stop offset="0.5625" stop-color="#4D4D4D"/>
<stop offset="1" stop-color="white"/>
</linearGradient>
<linearGradient id="paint11_linear_2_3" x1="41.3939" y1="740.95" x2="-32.5253" y2="1464.08" gradientUnits="userSpaceOnUse">
<stop stop-color="#2E2E2E"/>
<stop offset="0.5625" stop-color="#4D4D4D"/>
<stop offset="1" stop-color="white"/>
</linearGradient>
<linearGradient id="paint12_linear_2_3" x1="-53.335" y1="715.03" x2="-127.254" y2="1438.16" gradientUnits="userSpaceOnUse">
<stop stop-color="#2E2E2E"/>
<stop offset="0.5625" stop-color="#4D4D4D"/>
<stop offset="1" stop-color="white"/>
</linearGradient>
<linearGradient id="paint13_linear_2_3" x1="-138.174" y1="663.315" x2="-212.094" y2="1386.45" gradientUnits="userSpaceOnUse">
<stop stop-color="#2E2E2E"/>
<stop offset="0.5625" stop-color="#4D4D4D"/>
<stop offset="1" stop-color="white"/>
</linearGradient>
<linearGradient id="paint14_linear_2_3" x1="-212.513" y1="597.404" x2="-286.432" y2="1320.54" gradientUnits="userSpaceOnUse">
<stop stop-color="#2E2E2E"/>
<stop offset="0.5625" stop-color="#4D4D4D"/>
<stop offset="1" stop-color="white"/>
</linearGradient>
<linearGradient id="paint15_linear_2_3" x1="-287.416" y1="532.126" x2="-361.335" y2="1255.26" gradientUnits="userSpaceOnUse">
<stop stop-color="#2E2E2E"/>
<stop offset="0.5625" stop-color="#4D4D4D"/>
<stop offset="1" stop-color="white"/>
</linearGradient>
<linearGradient id="paint16_linear_2_3" x1="-374.036" y1="483.465" x2="-447.955" y2="1206.6" gradientUnits="userSpaceOnUse">
<stop stop-color="#2E2E2E"/>
<stop offset="0.5625" stop-color="#4D4D4D"/>
<stop offset="1" stop-color="white"/>
</linearGradient>
<linearGradient id="paint17_linear_2_3" x1="-492.678" y1="463.806" x2="-566.597" y2="1186.94" gradientUnits="userSpaceOnUse">
<stop stop-color="#2E2E2E"/>
<stop offset="0.5625" stop-color="#4D4D4D"/>
<stop offset="1" stop-color="white"/>
</linearGradient>
<linearGradient id="paint18_linear_2_3" x1="-591.167" y1="476.889" x2="-665.086" y2="1200.02" gradientUnits="userSpaceOnUse">
<stop stop-color="#2E2E2E"/>
<stop offset="0.5625" stop-color="#4D4D4D"/>
<stop offset="1" stop-color="white"/>
</linearGradient>
<linearGradient id="paint19_linear_2_3" x1="-685.918" y1="506.778" x2="-759.837" y2="1229.91" gradientUnits="userSpaceOnUse">
<stop stop-color="#2E2E2E"/>
<stop offset="0.5625" stop-color="#4D4D4D"/>
<stop offset="1" stop-color="white"/>
</linearGradient>
<linearGradient id="paint20_linear_2_3" x1="-776.513" y1="547.56" x2="-850.433" y2="1270.69" gradientUnits="userSpaceOnUse">
<stop stop-color="#2E2E2E"/>
<stop offset="0.5625" stop-color="#4D4D4D"/>
<stop offset="1" stop-color="white"/>
</linearGradient>
<linearGradient id="paint21_linear_2_3" x1="-863.318" y1="595.891" x2="-937.238" y2="1319.02" gradientUnits="userSpaceOnUse">
<stop stop-color="#2E2E2E"/>
<stop offset="0.5625" stop-color="#4D4D4D"/>
<stop offset="1" stop-color="white"/>
</linearGradient>
<linearGradient id="paint22_linear_2_3" x1="-946.706" y1="649.866" x2="-1020.63" y2="1373" gradientUnits="userSpaceOnUse">
<stop stop-color="#2E2E2E"/>
<stop offset="0.5625" stop-color="#4D4D4D"/>
<stop offset="1" stop-color="white"/>
</linearGradient>
<linearGradient id="paint23_linear_2_3" x1="947.004" y1="34.2812" x2="947.004" y2="761.183" gradientUnits="userSpaceOnUse">
<stop stop-color="#2E2E2E"/>
<stop offset="0.5625" stop-color="#4D4D4D"/>
<stop offset="1" stop-color="white"/>
</linearGradient>
<linearGradient id="paint24_linear_2_3" x1="885.652" y1="108.79" x2="885.652" y2="835.693" gradientUnits="userSpaceOnUse">
<stop stop-color="#2E2E2E"/>
<stop offset="0.5625" stop-color="#4D4D4D"/>
<stop offset="1" stop-color="white"/>
</linearGradient>
<linearGradient id="paint25_linear_2_3" x1="819.396" y1="182.819" x2="819.396" y2="909.721" gradientUnits="userSpaceOnUse">
<stop stop-color="#2E2E2E"/>
<stop offset="0.5625" stop-color="#4D4D4D"/>
<stop offset="1" stop-color="white"/>
</linearGradient>
<linearGradient id="paint26_linear_2_3" x1="750.367" y1="254.277" x2="750.367" y2="981.179" gradientUnits="userSpaceOnUse">
<stop stop-color="#2E2E2E"/>
<stop offset="0.5625" stop-color="#4D4D4D"/>
<stop offset="1" stop-color="white"/>
</linearGradient>
<linearGradient id="paint27_linear_2_3" x1="678.502" y1="322.883" x2="678.502" y2="1049.78" gradientUnits="userSpaceOnUse">
<stop stop-color="#2E2E2E"/>
<stop offset="0.5625" stop-color="#4D4D4D"/>
<stop offset="1" stop-color="white"/>
</linearGradient>
<linearGradient id="paint28_linear_2_3" x1="603.583" y1="388.139" x2="603.583" y2="1115.04" gradientUnits="userSpaceOnUse">
<stop stop-color="#2E2E2E"/>
<stop offset="0.5625" stop-color="#4D4D4D"/>
<stop offset="1" stop-color="white"/>
</linearGradient>
<linearGradient id="paint29_linear_2_3" x1="525.28" y1="449.293" x2="525.28" y2="1176.2" gradientUnits="userSpaceOnUse">
<stop stop-color="#2E2E2E"/>
<stop offset="0.5625" stop-color="#4D4D4D"/>
<stop offset="1" stop-color="white"/>
</linearGradient>
<linearGradient id="paint30_linear_2_3" x1="443.169" y1="505.231" x2="443.169" y2="1232.13" gradientUnits="userSpaceOnUse">
<stop stop-color="#2E2E2E"/>
<stop offset="0.5625" stop-color="#4D4D4D"/>
<stop offset="1" stop-color="white"/>
</linearGradient>
<linearGradient id="paint31_linear_2_3" x1="356.766" y1="554.28" x2="356.766" y2="1281.18" gradientUnits="userSpaceOnUse">
<stop stop-color="#2E2E2E"/>
<stop offset="0.5625" stop-color="#4D4D4D"/>
<stop offset="1" stop-color="white"/>
</linearGradient>
<linearGradient id="paint32_linear_2_3" x1="265.656" y1="593.905" x2="265.656" y2="1320.81" gradientUnits="userSpaceOnUse">
<stop stop-color="#2E2E2E"/>
<stop offset="0.5625" stop-color="#4D4D4D"/>
<stop offset="1" stop-color="white"/>
</linearGradient>
<linearGradient id="paint33_linear_2_3" x1="169.867" y1="620.284" x2="169.868" y2="1347.19" gradientUnits="userSpaceOnUse">
<stop stop-color="#2E2E2E"/>
<stop offset="0.5625" stop-color="#4D4D4D"/>
<stop offset="1" stop-color="white"/>
</linearGradient>
<linearGradient id="paint34_linear_2_3" x1="70.8264" y1="628.162" x2="70.8264" y2="1355.06" gradientUnits="userSpaceOnUse">
<stop stop-color="#2E2E2E"/>
<stop offset="0.5625" stop-color="#4D4D4D"/>
<stop offset="1" stop-color="white"/>
</linearGradient>
<linearGradient id="paint35_linear_2_3" x1="-26.0469" y1="612.009" x2="-26.0469" y2="1338.91" gradientUnits="userSpaceOnUse">
<stop stop-color="#2E2E2E"/>
<stop offset="0.5625" stop-color="#4D4D4D"/>
<stop offset="1" stop-color="white"/>
</linearGradient>
<linearGradient id="paint36_linear_2_3" x1="-115.705" y1="569.199" x2="-115.705" y2="1296.1" gradientUnits="userSpaceOnUse">
<stop stop-color="#2E2E2E"/>
<stop offset="0.5625" stop-color="#4D4D4D"/>
<stop offset="1" stop-color="white"/>
</linearGradient>
<linearGradient id="paint37_linear_2_3" x1="-196.361" y1="511.183" x2="-196.361" y2="1238.09" gradientUnits="userSpaceOnUse">
<stop stop-color="#2E2E2E"/>
<stop offset="0.5625" stop-color="#4D4D4D"/>
<stop offset="1" stop-color="white"/>
</linearGradient>
<linearGradient id="paint38_linear_2_3" x1="-277.514" y1="453.865" x2="-277.514" y2="1180.77" gradientUnits="userSpaceOnUse">
<stop stop-color="#2E2E2E"/>
<stop offset="0.5625" stop-color="#4D4D4D"/>
<stop offset="1" stop-color="white"/>
</linearGradient>
<linearGradient id="paint39_linear_2_3" x1="-368.633" y1="414.259" x2="-368.633" y2="1141.16" gradientUnits="userSpaceOnUse">
<stop stop-color="#2E2E2E"/>
<stop offset="0.5625" stop-color="#4D4D4D"/>
<stop offset="1" stop-color="white"/>
</linearGradient>
<linearGradient id="paint40_linear_2_3" x1="-488.658" y1="406.769" x2="-488.658" y2="1133.67" gradientUnits="userSpaceOnUse">
<stop stop-color="#2E2E2E"/>
<stop offset="0.5625" stop-color="#4D4D4D"/>
<stop offset="1" stop-color="white"/>
</linearGradient>
<linearGradient id="paint41_linear_2_3" x1="-585.307" y1="429.796" x2="-585.307" y2="1156.7" gradientUnits="userSpaceOnUse">
<stop stop-color="#2E2E2E"/>
<stop offset="0.5625" stop-color="#4D4D4D"/>
<stop offset="1" stop-color="white"/>
</linearGradient>
<linearGradient id="paint42_linear_2_3" x1="-676.527" y1="469.169" x2="-676.527" y2="1196.07" gradientUnits="userSpaceOnUse">
<stop stop-color="#2E2E2E"/>
<stop offset="0.5625" stop-color="#4D4D4D"/>
<stop offset="1" stop-color="white"/>
</linearGradient>
<linearGradient id="paint43_linear_2_3" x1="-762.509" y1="518.951" x2="-762.509" y2="1245.85" gradientUnits="userSpaceOnUse">
<stop stop-color="#2E2E2E"/>
<stop offset="0.5625" stop-color="#4D4D4D"/>
<stop offset="1" stop-color="white"/>
</linearGradient>
<linearGradient id="paint44_linear_2_3" x1="-843.949" y1="575.862" x2="-843.949" y2="1302.76" gradientUnits="userSpaceOnUse">
<stop stop-color="#2E2E2E"/>
<stop offset="0.5625" stop-color="#4D4D4D"/>
<stop offset="1" stop-color="white"/>
</linearGradient>
<linearGradient id="paint45_linear_2_3" x1="-921.414" y1="638.04" x2="-921.414" y2="1364.94" gradientUnits="userSpaceOnUse">
<stop stop-color="#2E2E2E"/>
<stop offset="0.5625" stop-color="#4D4D4D"/>
<stop offset="1" stop-color="white"/>
</linearGradient>
<linearGradient id="paint46_linear_2_3" x1="-1076.06" y1="532.871" x2="-911.332" y2="1240.86" gradientUnits="userSpaceOnUse">
<stop stop-color="#2E2E2E"/>
<stop offset="0.5625" stop-color="#4D4D4D"/>
<stop offset="1" stop-color="white"/>
</linearGradient>
</defs>
</svg>
